<svg width="31" height="24" viewBox="0 0 31 24" fill="none" xmlns="http://www.w3.org/2000/svg">
<path d="M0.625626 2.57555C4.74631 6.06252 11.9768 12.1972 14.102 14.11C14.3873 14.3681 14.6932 14.4994 15.0109 14.4994C15.3279 14.4994 15.6334 14.3694 15.918 14.1124C18.045 12.1978 25.2755 6.06252 29.3962 2.57555C29.6528 2.35887 29.6919 1.97801 29.4842 1.71311C29.004 1.10098 28.2882 0.75 27.5209 0.75H2.5009C1.7337 0.75 1.01776 1.10098 0.537665 1.71316C0.329959 1.97801 0.369073 2.35887 0.625626 2.57555Z" fill="#121426"/>
<path d="M29.6612 4.46513C29.4395 4.362 29.1787 4.39798 28.9942 4.55548C24.4245 8.4263 18.5922 13.3879 16.7572 15.0401C15.7273 15.969 14.2979 15.969 13.2656 15.0388C11.3097 13.278 4.76022 7.71462 1.02985 4.55542C0.844133 4.39792 0.582713 4.36318 0.36281 4.46507C0.141735 4.56767 0 4.78862 0 5.03214V20.7499C0 22.1287 1.12209 23.2499 2.50202 23.2499H27.5221C28.902 23.2499 30.0241 22.1287 30.0241 20.7499V5.03214C30.0241 4.78862 29.8823 4.56708 29.6612 4.46513Z" fill="#121426"/>
</svg>
