<svg width="31" height="30" viewBox="0 0 31 30" fill="none" xmlns="http://www.w3.org/2000/svg">
<g clip-path="url(#clip0_1200_2743)">
<path d="M27.9606 19.6916C26.1224 19.6916 24.3176 19.4043 22.6072 18.8395C21.7691 18.5539 20.7388 18.8159 20.2273 19.3409L16.8514 21.8873C12.9363 19.7991 10.5247 17.3902 8.46338 13.5076L10.9368 10.2223C11.5795 9.58102 11.81 8.6443 11.5338 7.76539C10.9662 6.04742 10.6778 4.24484 10.6778 2.40734C10.6779 1.07992 9.5971 0 8.26869 0H2.7549C1.42649 0 0.345703 1.07992 0.345703 2.40727C0.345703 17.6221 12.7336 30 27.9606 30C29.289 30 30.3698 28.9201 30.3698 27.5927V22.0988C30.3698 20.7715 29.289 19.6916 27.9606 19.6916Z" fill="#121426"/>
</g>
<defs>
<clipPath id="clip0_1200_2743">
<rect width="30.0241" height="30" fill="white" transform="translate(0.345703)"/>
</clipPath>
</defs>
</svg>
