<svg width="24" height="30" viewBox="0 0 24 30" fill="none" xmlns="http://www.w3.org/2000/svg">
<path d="M11.7006 0C5.39552 0 0.265625 5.12578 0.265625 11.4258C0.265625 13.9189 1.05376 16.2879 2.54675 18.2754L10.9957 29.6456C11.0168 29.6731 11.0491 29.6837 11.0725 29.7083C11.4947 30.16 12.104 30.0463 12.4048 29.6456C14.8378 26.4018 19.2975 20.3438 21.0121 18.0586C21.0121 18.0586 21.0127 18.0568 21.0133 18.0557L21.0239 18.0416C22.4054 16.1021 23.1355 13.8146 23.1355 11.4258C23.1355 5.12578 18.0056 0 11.7006 0ZM11.7006 17.5898C8.30586 17.5898 5.53156 14.8178 5.53156 11.4258C5.53156 8.03379 8.30586 5.26172 11.7006 5.26172C15.0953 5.26172 17.8696 8.03379 17.8696 11.4258C17.8696 14.8178 15.0953 17.5898 11.7006 17.5898Z" fill="#121426"/>
</svg>
